# xmcd
# 
# Track frame offsets:
#     150
#     17405
#     33905
#     46790
#     66317
#     80870
#     94195
#     111217
#     125885
#     139550
#     153505
#     170962
#     182450
#     195957
# 
# Disc length: 2803
# 
# Revision: 7
# Processed by: cddbd v1.5.2PL0 Copyright (c) Steve Scherf et al.
# Submitted via: BonkEnc v1.0.6
# 
DISCID=ba0af10e
DTITLE=Rionegro e Solimoes - O Amor Supera Tudo
DYEAR=1997
DGENRE=Country
TTITLE0=Falta Voce
TTITLE1=A Gente Se Entrega
TTITLE2=To Doidao
TTITLE3=Frio Da Madrugada
TTITLE4=De Sao Paulo A Belem
TTITLE5=Saudade Pulou No Peito
TTITLE6=Depois De Voce
TTITLE7=Trem Bao
TTITLE8=Cuitelinho
TTITLE9=Deixe A Poeira Subir
TTITLE10=Depois Que Perde
TTITLE11=Rei Da Festa
TTITLE12=Tudo Acabou
TTITLE13=No Pique Do Rodeio
EXTD=YEAR: 1997
EXTT0=
EXTT1=
EXTT2=
EXTT3=
EXTT4=
EXTT5=
EXTT6=
EXTT7=
EXTT8=
EXTT9=
EXTT10=
EXTT11=
EXTT12=
EXTT13=
PLAYORDER=
